<?xml version="1.0" encoding="UTF-8" standalone="no"?>
<!DOCTYPE svg PUBLIC "-//W3C//DTD SVG 1.1//EN"
 "http://www.w3.org/Graphics/SVG/1.1/DTD/svg11.dtd">
<!-- Generated by graphviz version 2.42.3 ()
 -->
<!-- Title: foo Pages: 1 -->
<svg width="100pt" height="222pt"
 viewBox="0.00 0.00 99.92 222.00" xmlns="http://www.w3.org/2000/svg" xmlns:xlink="http://www.w3.org/1999/xlink">
<g id="graph0" class="graph" transform="scale(1 1) rotate(0) translate(4 218)">
<title>foo</title>
<polygon fill="white" stroke="transparent" points="-4,4 -4,-218 95.92,-218 95.92,4 -4,4"/>
<!-- node1 -->
<g id="node1" class="node">
<title>node1</title>
<path fill="none" stroke="black" d="M60.96,-214C60.96,-214 30.96,-214 30.96,-214 24.96,-214 18.96,-208 18.96,-202 18.96,-202 18.96,-190 18.96,-190 18.96,-184 24.96,-178 30.96,-178 30.96,-178 60.96,-178 60.96,-178 66.96,-178 72.96,-184 72.96,-190 72.96,-190 72.96,-202 72.96,-202 72.96,-208 66.96,-214 60.96,-214"/>
<text text-anchor="middle" x="45.96" y="-192.3" font-family="Times,serif" font-size="14.00">node1</text>
</g>
<!-- node2 -->
<g id="node2" class="node">
<title>node2</title>
<path fill="yellow" stroke="black" d="M34.79,-137.62C34.79,-137.62 11.21,-128.38 11.21,-128.38 5.63,-126.19 5.63,-121.81 11.21,-119.62 11.21,-119.62 34.79,-110.38 34.79,-110.38 40.37,-108.19 51.54,-108.19 57.13,-110.38 57.13,-110.38 80.7,-119.62 80.7,-119.62 86.29,-121.81 86.29,-126.19 80.7,-128.38 80.7,-128.38 57.13,-137.62 57.13,-137.62 51.54,-139.81 40.37,-139.81 34.79,-137.62"/>
<text text-anchor="middle" x="45.96" y="-120.3" font-family="Times,serif" font-size="14.00">node2</text>
</g>
<!-- node1&#45;&gt;node2 -->
<g id="edge1" class="edge">
<title>node1&#45;&gt;node2</title>
<path fill="none" stroke="black" d="M45.96,-177.7C45.96,-169.98 45.96,-160.71 45.96,-152.11"/>
<polygon fill="black" stroke="black" points="49.46,-152.1 45.96,-142.1 42.46,-152.1 49.46,-152.1"/>
</g>
<!-- node3 -->
<g id="node3" class="node">
<title>node3</title>
<path fill="none" stroke="black" d="M30.96,-0.5C30.96,-0.5 60.96,-0.5 60.96,-0.5 66.96,-0.5 72.96,-6.5 72.96,-12.5 72.96,-12.5 72.96,-57.5 72.96,-57.5 72.96,-63.5 66.96,-69.5 60.96,-69.5 60.96,-69.5 30.96,-69.5 30.96,-69.5 24.96,-69.5 18.96,-63.5 18.96,-57.5 18.96,-57.5 18.96,-12.5 18.96,-12.5 18.96,-6.5 24.96,-0.5 30.96,-0.5"/>
<text text-anchor="middle" x="45.96" y="-54.3" font-family="Times,serif" font-size="14.00">a</text>
<polyline fill="none" stroke="black" points="18.96,-46.5 72.96,-46.5 "/>
<text text-anchor="middle" x="45.96" y="-31.3" font-family="Times,serif" font-size="14.00">b</text>
<polyline fill="none" stroke="black" points="18.96,-23.5 72.96,-23.5 "/>
<text text-anchor="middle" x="45.96" y="-8.3" font-family="Times,serif" font-size="14.00">c</text>
</g>
<!-- node2&#45;&gt;node3 -->
<g id="edge2" class="edge">
<title>node2&#45;&gt;node3</title>
<path fill="none" stroke="black" d="M45.96,-105.81C45.96,-98.33 45.96,-89.18 45.96,-80"/>
<polygon fill="black" stroke="black" points="49.46,-79.71 45.96,-69.71 42.46,-79.71 49.46,-79.71"/>
</g>
</g>
</svg>
